<svg xmlns="http://www.w3.org/2000/svg" xmlns:xlink="http://www.w3.org/1999/xlink" viewBox="0 0 394.44 128.67"><defs><style>.cls-1{fill:#3d55a2;}.cls-2{fill:#3f6cb4;}.cls-3{fill:#5bb4e6;}.cls-4{fill:#57c1d9;}.cls-5{fill:#73c4bd;}.cls-6{fill:url(#Dégradé_sans_nom_21);}.cls-7{fill:url(#Dégradé_sans_nom_221);}.cls-8{fill:url(#Dégradé_sans_nom_233);}.cls-9{fill:url(#Dégradé_sans_nom_203);}.cls-10{fill:url(#Dégradé_sans_nom_198);}.cls-11{fill:url(#Dégradé_sans_nom_32);}.cls-12{font-size:13px;fill:#5cb3e5;font-family:Aileron-SemiBold, Aileron;font-weight:600;}.cls-13{letter-spacing:-0.04em;}.cls-14{letter-spacing:-0.01em;}.cls-15{letter-spacing:-0.03em;}.cls-16{letter-spacing:-0.02em;}</style><linearGradient id="Dégradé_sans_nom_21" x1="95.29" y1="56.83" x2="120.18" y2="56.83" gradientUnits="userSpaceOnUse"><stop offset="0" stop-color="#6f3c90"/><stop offset="0.08" stop-color="#694294"/><stop offset="0.35" stop-color="#57519f"/><stop offset="0.64" stop-color="#4d5aa5"/><stop offset="1" stop-color="#4a5da7"/></linearGradient><linearGradient id="Dégradé_sans_nom_221" x1="122.8" y1="57.34" x2="162.21" y2="57.34" gradientUnits="userSpaceOnUse"><stop offset="0" stop-color="#4a5da7"/><stop offset="0.25" stop-color="#4b60a9"/><stop offset="0.46" stop-color="#4d6ab1"/><stop offset="0.64" stop-color="#507bbd"/><stop offset="0.82" stop-color="#5593ce"/><stop offset="0.99" stop-color="#5bb1e4"/><stop offset="1" stop-color="#5cb4e6"/></linearGradient><linearGradient id="Dégradé_sans_nom_233" x1="157.87" y1="56.31" x2="199.36" y2="56.31" gradientUnits="userSpaceOnUse"><stop offset="0" stop-color="#4a5da7"/><stop offset="0.52" stop-color="#5cb4e6"/><stop offset="1" stop-color="#58c1d9"/></linearGradient><linearGradient id="Dégradé_sans_nom_203" x1="200.64" y1="56.83" x2="244.2" y2="56.83" gradientUnits="userSpaceOnUse"><stop offset="0" stop-color="#5cb4e6"/><stop offset="1" stop-color="#58c1d9"/></linearGradient><linearGradient id="Dégradé_sans_nom_198" x1="249.57" y1="56.83" x2="294.17" y2="56.83" gradientUnits="userSpaceOnUse"><stop offset="0" stop-color="#58c1d9"/><stop offset="0.5" stop-color="#67c3c9"/><stop offset="1" stop-color="#72c4bd"/></linearGradient><linearGradient id="Dégradé_sans_nom_32" x1="252.62" y1="7.34" x2="369.68" y2="124.4" gradientUnits="userSpaceOnUse"><stop offset="0" stop-color="#6f3c90"/><stop offset="0.12" stop-color="#3c55a2"/><stop offset="0.14" stop-color="#3d5ca7"/><stop offset="0.19" stop-color="#3e68b1"/><stop offset="0.24" stop-color="#3f6cb4"/><stop offset="0.52" stop-color="#5bb4e6"/><stop offset="0.78" stop-color="#57c1d9"/><stop offset="0.86" stop-color="#5bc1d5"/><stop offset="0.94" stop-color="#66c3ca"/><stop offset="1" stop-color="#73c4bd"/></linearGradient></defs><g id="Calque_2" data-name="Calque 2"><g id="V5"><polygon class="cls-1" points="135.32 0.03 116.45 21.42 77.91 22.04 92.64 0.03 135.32 0.03"/><path class="cls-2" d="M62.9,24c-15.27,3.38-19.13,5.55-29.25,13.83H3.4c1.8-8.61,7.86-15.64,14.49-21.07a90.61,90.61,0,0,1,22-12.93C44.82,1.76,50.14.1,55.62,0c6-.08,12.08.09,18.11.06l3.4,0Z"/><path class="cls-3" d="M1.37,45H28.51c-5.69,9.92-5.6,21.74-1,35.06L2.76,85.84C-.42,74.19-.81,54.92,1.37,45Z"/><path class="cls-4" d="M6.33,96.25,31.49,88.5c7.63,12.6,22.63,17.13,34.61,18.38,1.14,4.16,4.11,15.31,5.48,21.45-10.73.09-26,1.08-41.12-7.12A50.88,50.88,0,0,1,6.33,96.25Z"/><polygon class="cls-5" points="135.32 128.33 86.39 128.67 80.01 107.89 124 108.21 135.32 128.33"/><path class="cls-6" d="M120.18,35.05v6.22H95.29V35.05ZM95.29,59.94V53.8h21.78v6.14Zm6.23,12.44h18.66v6.23H95.29V72.36h6.23Z"/><path class="cls-7" d="M142.52,65l3.21,7.4-3.22,7.28L122.8,35.05h6.74l13,29.94Zm19.69-29.91-14.6,33-3.23-7.41,11.09-25.63Z"/><path class="cls-8" d="M199.36,78.61h-6.74l-4.22-9.34h0l-9.76-21.52-9.77,21.52h0l-4.22,9.34h-6.74L178.62,34Z"/><path class="cls-9" d="M236.75,63.73h6.46a20.92,20.92,0,0,1-20.27,15.39,22.3,22.3,0,1,1,0-44.59c8.82,0,15.56,4.92,19.25,12.18l-6.28,1.82a14.37,14.37,0,0,0-13-7.78,16.08,16.08,0,0,0,0,32.15A14.27,14.27,0,0,0,236.75,63.73Zm7.45-6.9a24.52,24.52,0,0,1-.35,4.14H221.39V54.75l22.68.07A17.11,17.11,0,0,1,244.2,56.83Z"/><path class="cls-10" d="M270.1,34.6v6.25a16.07,16.07,0,0,0,0,31.95v6.25a22.29,22.29,0,0,1,0-44.45Zm24.07,22.23a22.3,22.3,0,0,1-20.52,22.22V72.8a16.07,16.07,0,0,0,0-31.95V34.6A22.3,22.3,0,0,1,294.17,56.83Z"/><circle class="cls-3" cx="178.89" cy="68.09" r="3.15"/><path class="cls-11" d="M259.07,0l18.86,21.39c47-1.08,91.14.49,92.46,42.13-5.66,51.58-43.64,43.58-100,44.66l-11.32,20.12h53.27c8.84,0,17.68.38,26.52.08,4.17-.13,8.29-.22,12.28-1.5a80.46,80.46,0,0,0,11.58-5.07,60.12,60.12,0,0,0,13.36-9c9.44-8.54,14.59-20.32,16.75-32.7a105.86,105.86,0,0,0,1.46-16c0-1.94.16-3.88.14-5.83s-.1-3.71-.26-5.56-.37-3.51-.66-5.25-.64-3.32-1.06-4.95-.89-3.13-1.44-4.66a46.38,46.38,0,0,0-1.81-4.38c-.65-1.4-1.38-2.78-2.16-4.11s-1.62-2.6-2.52-3.84-1.85-2.43-2.85-3.59-2.08-2.27-3.18-3.33-2.29-2.11-3.5-3.1-2.5-1.95-3.81-2.86-2.7-1.81-4.1-2.64-2.89-1.66-4.38-2.42S359.61,6.14,358,5.45A77.26,77.26,0,0,0,345.77.92C341.39-.17,337.13,0,332.68,0H259.07Z"/><text class="cls-12" transform="translate(55.63 97.4)">TECHNO<tspan class="cls-13" x="53.98" y="0">L</tspan><tspan x="61.11" y="0">OGIE - ODON</tspan><tspan class="cls-14" x="139.13" y="0">T</tspan><tspan x="146.98" y="0">O</tspan><tspan class="cls-13" x="156.73" y="0">L</tspan><tspan x="163.86" y="0">OGIE - PE</tspan><tspan class="cls-15" x="219.18" y="0">D</tspan><tspan class="cls-16" x="228.2" y="0">A</tspan><tspan x="236.52" y="0">GOGIE</tspan></text></g></g></svg>